<svg width="7" height="12" viewBox="0 0 7 12" fill="none" xmlns="http://www.w3.org/2000/svg">
<path d="M6.51566 1.1111C6.516 1.16959 6.50479 1.22757 6.48267 1.28172C6.46056 1.33587 6.42797 1.38512 6.38678 1.42665L1.81344 5.99999L6.38678 10.5733C6.45959 10.6583 6.49763 10.7677 6.49331 10.8796C6.48899 10.9914 6.44262 11.0975 6.36347 11.1767C6.28432 11.2558 6.17821 11.3022 6.06635 11.3065C5.9545 11.3108 5.84513 11.2728 5.76011 11.2L0.555664 5.99999L5.76011 0.795542C5.8225 0.734384 5.90154 0.69297 5.98733 0.676479C6.07313 0.659988 6.16189 0.66915 6.24251 0.702821C6.32313 0.736492 6.39203 0.793177 6.44062 0.865791C6.4892 0.938407 6.5153 1.02373 6.51566 1.1111Z" fill="black"/>
</svg>
