<svg width="14" height="12" viewBox="0 0 14 12" fill="none" xmlns="http://www.w3.org/2000/svg">
<path d="M12.7777 0.222168H1.22214C0.986393 0.222168 0.7603 0.315818 0.593601 0.482517C0.426902 0.649216 0.333252 0.875309 0.333252 1.11106V10.8888C0.333252 11.1246 0.426902 11.3507 0.593601 11.5174C0.7603 11.6841 0.986393 11.7777 1.22214 11.7777H12.7777C13.0134 11.7777 13.2395 11.6841 13.4062 11.5174C13.5729 11.3507 13.6666 11.1246 13.6666 10.8888V1.11106C13.6666 0.875309 13.5729 0.649216 13.4062 0.482517C13.2395 0.315818 13.0134 0.222168 12.7777 0.222168ZM4.7777 10.8888H1.22214V1.11106H4.7777V10.8888ZM9.22214 10.8888H5.66659V1.11106H9.22214V10.8888Z" fill="white"/>
</svg>
