<svg width="26" height="24" viewBox="0 0 26 24" fill="none" xmlns="http://www.w3.org/2000/svg">
<path d="M5.32004 8.4V3.18C5.32004 1.86 6.40004 0.779999 7.72004 0.779999H21.1L25.9 5.7V15.6C25.9 15.96 25.66 16.2 25.3 16.2C24.94 16.2 24.7 15.96 24.7 15.6V6.9H21.7C20.68 6.9 19.9 6.12 19.9 5.1V1.98H7.72004C7.06004 1.98 6.52004 2.52 6.52004 3.18V8.4H19.9C20.56 8.4 21.1 8.94 21.1 9.6V18C21.1 18.66 20.56 19.2 19.9 19.2H6.52004V21C6.52004 21.66 7.06004 22.2 7.72004 22.2H23.5C24.16 22.2 24.7 21.66 24.7 21V19.2C24.7 18.84 24.94 18.6 25.3 18.6C25.66 18.6 25.9 18.84 25.9 19.2V21C25.9 22.32 24.82 23.4 23.5 23.4H7.72004C6.40004 23.4 5.32004 22.32 5.32004 21V19.2H1.30004C0.640037 19.2 0.100037 18.66 0.100037 18V9.6C0.100037 8.94 0.640037 8.4 1.30004 8.4H5.32004ZM21.1 2.46V5.1C21.1 5.4 21.34 5.7 21.7 5.7H24.22L21.1 2.46ZM7.24004 12.72C6.82004 11.58 6.04004 11.04 4.78004 10.98C3.04004 11.1 2.14004 12.06 2.02004 13.98C2.08004 15.9 3.04004 16.92 4.78004 16.98C6.16004 16.98 7.06004 16.32 7.36004 15L6.28004 14.64C6.16004 15.6 5.62004 16.02 4.84004 16.02C3.82004 15.96 3.28004 15.24 3.22004 13.92C3.28004 12.6 3.82004 11.94 4.84004 11.88C5.56004 11.94 6.04004 12.3 6.22004 12.96L7.24004 12.72ZM8.02004 15.06C8.32004 16.38 9.16004 16.98 10.66 16.98C12.16 16.98 12.88 16.38 12.94 15.24C12.94 14.52 12.52 14.04 11.74 13.68L10.66 13.32C9.82004 13.14 9.40004 12.84 9.46004 12.48C9.52004 12 9.88004 11.82 10.48 11.76C11.2 11.76 11.62 12.06 11.74 12.72L12.82 12.48C12.64 11.4 11.8 10.8 10.42 10.86C9.10004 10.92 8.38004 11.46 8.32004 12.42C8.26004 13.26 8.80004 13.8 10 14.1C10.3 14.16 10.6 14.22 10.9 14.34C11.56 14.52 11.86 14.82 11.8 15.24C11.74 15.78 11.38 16.02 10.66 16.08C9.82004 16.08 9.28004 15.66 9.16004 14.76L8.02004 15.06ZM19.18 11.04H17.98L16.54 15.3C16.42 15.66 16.36 15.84 16.36 15.9C16.36 15.78 16.3 15.6 16.18 15.3L14.68 10.98H13.48L15.76 16.8H17.02L19.18 11.04Z" fill="#0079B8"/>
</svg>
