<svg width="20" height="20" viewBox="0 0 16 16" fill="none" xmlns="http://www.w3.org/2000/svg">
<path d="M12.0624 15.1111H3.938C3.76697 15.1071 3.59842 15.0694 3.44196 15.0002C3.28551 14.931 3.14423 14.8316 3.02619 14.7078C2.90814 14.584 2.81565 14.4381 2.754 14.2785C2.69235 14.119 2.66275 13.9488 2.66688 13.7778V4.9911H3.55577V13.7778C3.55153 13.8321 3.55807 13.8867 3.575 13.9385C3.59194 13.9902 3.61895 14.0382 3.65447 14.0795C3.68999 14.1208 3.73332 14.1546 3.78198 14.1791C3.83064 14.2036 3.88366 14.2183 3.938 14.2222H12.0624C12.1168 14.2183 12.1698 14.2036 12.2185 14.1791C12.2671 14.1546 12.3104 14.1208 12.346 14.0795C12.3815 14.0382 12.4085 13.9902 12.4254 13.9385C12.4424 13.8867 12.4489 13.8321 12.4447 13.7778V4.9911H13.3336V13.7778C13.3377 13.9488 13.3081 14.119 13.2464 14.2785C13.1848 14.4381 13.0923 14.584 12.9742 14.7078C12.8562 14.8316 12.7149 14.931 12.5585 15.0002C12.402 15.0694 12.2335 15.1071 12.0624 15.1111Z" fill="#F54F47"/>
<path d="M13.6801 4H2.22228C2.1044 4 1.99136 3.95318 1.90801 3.86983C1.82466 3.78648 1.77783 3.67343 1.77783 3.55556C1.77783 3.43768 1.82466 3.32464 1.90801 3.24129C1.99136 3.15794 2.1044 3.11111 2.22228 3.11111H13.6801C13.7979 3.11111 13.911 3.15794 13.9943 3.24129C14.0777 3.32464 14.1245 3.43768 14.1245 3.55556C14.1245 3.67343 14.0777 3.78648 13.9943 3.86983C13.911 3.95318 13.7979 4 13.6801 4Z" fill="#F54F47"/>
<path d="M10.2224 5.77777H9.3335V12.4444H10.2224V5.77777Z" fill="#F54F47"/>
<path d="M6.66672 5.77777H5.77783V12.4444H6.66672V5.77777Z" fill="#F54F47"/>
<path d="M10.2223 2.60444H9.37783V1.77777H6.62228V2.60444H5.77783V1.77777C5.77755 1.54953 5.86507 1.32992 6.02228 1.16444C6.17948 0.998963 6.39432 0.900298 6.62228 0.888885H9.37783C9.60579 0.900298 9.82063 0.998963 9.97783 1.16444C10.135 1.32992 10.2226 1.54953 10.2223 1.77777V2.60444Z" fill="#F54F47"/>
</svg>
