<svg width="7" height="12" viewBox="0 0 7 12" fill="none" xmlns="http://www.w3.org/2000/svg">
<path d="M0.484336 10.8889C0.483998 10.8304 0.495209 10.7724 0.517326 10.7182C0.539444 10.6641 0.572032 10.6148 0.613225 10.5733L5.18656 5.99998L0.613225 1.42665C0.540413 1.34163 0.502366 1.23226 0.506687 1.12041C0.511007 1.00855 0.557376 0.902443 0.636529 0.82329C0.715683 0.744137 0.821789 0.697767 0.933645 0.693447C1.0455 0.689126 1.15487 0.727173 1.23989 0.799985L6.44434 5.99998L1.23989 11.2044C1.1775 11.2656 1.09846 11.307 1.01267 11.3235C0.926868 11.34 0.838113 11.3308 0.757493 11.2971C0.676874 11.2635 0.607967 11.2068 0.559384 11.1342C0.510801 11.0616 0.484697 10.9762 0.484336 10.8889Z" fill="black"/>
</svg>
