<svg width="24" height="24" viewBox="0 0 24 24" fill="none" xmlns="http://www.w3.org/2000/svg">
<path d="M13.624 -3.0038e-05C13.8663 -0.000267267 14.1005 0.0875058 14.283 0.24697L21.659 6.70097C21.7662 6.79492 21.8521 6.91072 21.9109 7.04059C21.9698 7.17046 22.0001 7.3114 22 7.45397V11C22.2626 11 22.5227 11.0517 22.7654 11.1522C23.008 11.2527 23.2285 11.4 23.4142 11.5858C23.5999 11.7715 23.7472 11.992 23.8478 12.2346C23.9483 12.4773 24 12.7373 24 13V18C24 18.5304 23.7893 19.0391 23.4142 19.4142C23.0391 19.7893 22.5304 20 22 20V21C22 21.7652 21.7077 22.5015 21.1827 23.0582C20.6578 23.615 19.9399 23.9501 19.176 23.995L19 24H5C4.23479 24 3.49849 23.7076 2.94174 23.1827C2.38499 22.6577 2.04989 21.9399 2.005 21.176L2 21V20C1.46957 20 0.960859 19.7893 0.585786 19.4142C0.210714 19.0391 0 18.5304 0 18L0 13C-3.07786e-09 12.7373 0.0517315 12.4773 0.152241 12.2346C0.25275 11.992 0.400069 11.7715 0.585786 11.5858C0.771504 11.4 0.991982 11.2527 1.23463 11.1522C1.47728 11.0517 1.73736 11 2 11V2.99997C1.99996 2.23476 2.29233 1.49846 2.81728 0.941709C3.34224 0.384963 4.06011 0.0498623 4.824 0.00496995L5 -3.0038e-05H13.624ZM20 20H4V21C4.00003 21.2449 4.08996 21.4813 4.25272 21.6643C4.41547 21.8474 4.63975 21.9643 4.883 21.993L5 22H19C19.2449 21.9999 19.4813 21.91 19.6644 21.7473C19.8474 21.5845 19.9643 21.3602 19.993 21.117L20 21V20ZM12.068 12.574H9.718V19H12.068C13.111 19 13.895 18.712 14.435 18.136C14.947 17.587 15.209 16.804 15.209 15.787C15.209 14.761 14.948 13.978 14.435 13.438C13.895 12.862 13.111 12.574 12.068 12.574ZM20 12.574H16.198V19H17.251V16.156H20V15.256H17.252V13.474H20V12.574ZM6.488 12.574H4V19H4.877V16.534H6.47C8.036 16.534 8.819 15.868 8.819 14.545C8.819 13.231 8.035 12.574 6.487 12.574H6.488ZM11.869 13.474C12.671 13.474 13.255 13.654 13.624 14.023C13.984 14.383 14.164 14.977 14.164 15.787C14.164 16.579 13.984 17.164 13.624 17.542C13.255 17.911 12.67 18.1 11.869 18.1H10.771V13.474H11.869ZM6.407 13.474C6.865 13.474 7.207 13.555 7.423 13.726C7.639 13.888 7.756 14.158 7.756 14.545C7.756 14.932 7.649 15.211 7.432 15.382C7.216 15.544 6.874 15.634 6.406 15.634H4.876V13.474H6.406H6.407ZM12 1.99997H5C4.75507 2 4.51866 2.08993 4.33563 2.25269C4.15259 2.41544 4.03566 2.63972 4.007 2.88297L4 2.99997V11H20V8.99997H15C14.2649 9.00009 13.5553 8.73029 13.006 8.24178C12.4566 7.75328 12.1058 7.08008 12.02 6.34997L12.005 6.17597L12 5.99997V1.99997ZM14 2.43297V5.99997C14 6.2449 14.09 6.48131 14.2527 6.66434C14.4155 6.84738 14.6397 6.96431 14.883 6.99297L15 6.99997H18.922L14 2.43297Z" fill="#0079B8"/>
</svg>
